<svg width="14" height="14" viewBox="0 0 14 14" fill="none" xmlns="http://www.w3.org/2000/svg">
<path d="M2.44856 5.57532C1.84706 4.3682 2.45396 3.03599 3.61045 2.3421C4.16725 2.00802 4.88686 2.153 5.27085 2.67663L6.12277 3.83834C6.48537 4.33279 6.54095 4.98852 6.26673 5.53694L6.04336 5.98369C5.9787 6.11301 5.96848 6.26261 6.03462 6.39118C6.15513 6.62542 6.41175 7.04053 6.90611 7.53489C7.40047 8.02925 7.81558 8.28587 8.04982 8.40638C8.1784 8.47253 8.32799 8.4623 8.45732 8.39764L8.90406 8.17427C9.45248 7.90006 10.1082 7.95563 10.6027 8.31823L11.7644 9.17015C12.288 9.55414 12.433 10.2738 12.0989 10.8306C11.405 11.987 10.0728 12.5939 8.86569 11.9924C7.84833 11.4855 6.54828 10.6465 5.17139 9.26962C3.79449 7.89273 2.9555 6.59268 2.44856 5.57532Z" fill="#151515"/>
</svg>
