<svg width="14" height="14" viewBox="0 0 14 14" fill="none" xmlns="http://www.w3.org/2000/svg">
<path fill-rule="evenodd" clip-rule="evenodd" d="M2.25797 5.62808C1.91334 5.93824 1.71655 6.3801 1.71655 6.84374V11.0219C1.71655 11.9252 2.4488 12.6574 3.35207 12.6574H10.9845C11.8877 12.6574 12.62 11.9252 12.62 11.0219V6.84374C12.62 6.3801 12.4232 5.93824 12.0786 5.62808L8.26237 2.1935C7.64037 1.6337 6.69616 1.6337 6.07416 2.1935L2.25797 5.62808ZM6.62309 7.75086C6.02091 7.75086 5.53275 8.23902 5.53275 8.8412V11.0219C5.53275 11.323 5.77683 11.5671 6.07792 11.5671H8.25861C8.5597 11.5671 8.80378 11.323 8.80378 11.0219V8.8412C8.80378 8.23902 8.31562 7.75086 7.71344 7.75086H6.62309Z" fill="#151515"/>
</svg>
