<svg width="14" height="14" viewBox="0 0 14 14" fill="none" xmlns="http://www.w3.org/2000/svg">
<path fill-rule="evenodd" clip-rule="evenodd" d="M7.16827 12.106C10.1792 12.106 12.62 9.66514 12.62 6.65425C12.62 3.64335 10.1792 1.20253 7.16827 1.20253C4.15737 1.20253 1.71655 3.64335 1.71655 6.65425C1.71655 9.66514 4.15737 12.106 7.16827 12.106ZM7.16827 9.92527C5.29319 9.92527 4.26574 8.91384 3.97872 7.76228C3.90363 7.461 4.15643 7.19942 4.46692 7.19942H9.86965C10.1801 7.19942 10.4329 7.461 10.3578 7.76226C10.0708 8.91383 9.04337 9.92527 7.16827 9.92527ZM5.53275 5.01873C5.53275 5.31982 5.28867 5.5639 4.98758 5.5639C4.68649 5.5639 4.44241 5.31982 4.44241 5.01873C4.44241 4.71764 4.68649 4.47356 4.98758 4.47356C5.28867 4.47356 5.53275 4.71764 5.53275 5.01873ZM9.34895 5.5639C9.65004 5.5639 9.89412 5.31982 9.89412 5.01873C9.89412 4.71764 9.65004 4.47356 9.34895 4.47356C9.04786 4.47356 8.80378 4.71764 8.80378 5.01873C8.80378 5.31982 9.04786 5.5639 9.34895 5.5639Z" fill="#151515"/>
</svg>
