<svg width="14" height="14" viewBox="0 0 14 14" fill="none" xmlns="http://www.w3.org/2000/svg">
<path fill-rule="evenodd" clip-rule="evenodd" d="M3.43947 1.20253C2.5362 1.20253 1.80396 1.93478 1.80396 2.83805V10.4704C1.80396 11.3737 2.5362 12.106 3.43947 12.106H11.0719C11.9751 12.106 12.7074 11.3737 12.7074 10.4704V5.01873C12.7074 4.30662 12.2523 3.7008 11.617 3.47628V2.83805C11.617 1.93478 10.8848 1.20253 9.98152 1.20253H3.43947ZM3.43947 2.29288C3.13838 2.29288 2.8943 2.53696 2.8943 2.83805C2.8943 3.13914 3.13838 3.38322 3.43947 3.38322H10.5267V2.83805C10.5267 2.53696 10.2826 2.29288 9.98152 2.29288H3.43947ZM9.98152 6.65425C9.37934 6.65425 8.89118 7.14241 8.89118 7.74459C8.89118 8.34677 9.37934 8.83493 9.98152 8.83493H11.0719C11.373 8.83493 11.617 8.59085 11.617 8.28976V7.19942C11.617 6.89833 11.373 6.65425 11.0719 6.65425H9.98152Z" fill="#151515"/>
</svg>
