<svg width="36" height="36" viewBox="0 0 36 36" fill="none" xmlns="http://www.w3.org/2000/svg">
<path d="M1.5 25.4998V29.9998C1.5 30.8282 2.17157 31.4998 3 31.4998H24C24.8284 31.4998 25.5 30.8282 25.5 29.9998V25.4998C25.5 22.186 22.8137 19.4998 19.5 19.4998H7.5C4.18629 19.4998 1.5 22.186 1.5 25.4998Z" fill="#151515"/>
<path d="M28.476 30.4674C28.4229 30.9823 28.7869 31.4998 29.3046 31.4998H33.0001C33.8285 31.4998 34.5001 30.8282 34.5001 29.9998V25.4998C34.5001 22.186 31.8138 19.4998 28.5001 19.4998H27.0473C26.7231 19.4998 26.5452 19.8893 26.7381 20.1499C27.8453 21.6454 28.5001 23.4961 28.5001 25.4998V29.9998C28.5001 30.1577 28.4919 30.3137 28.476 30.4674Z" fill="#151515"/>
<path d="M19.5 10.4998C19.5 13.8135 16.8137 16.4998 13.5 16.4998C10.1863 16.4998 7.5 13.8135 7.5 10.4998C7.5 7.18605 10.1863 4.49976 13.5 4.49976C16.8137 4.49976 19.5 7.18605 19.5 10.4998Z" fill="#151515"/>
<path d="M21.5262 16.4211C21.0151 16.3377 20.8408 15.7337 21.1172 15.2957C21.9932 13.9073 22.5001 12.2627 22.5001 10.4998C22.5001 8.73679 21.9932 7.09221 21.1172 5.70382C20.8408 5.26584 21.0151 4.66181 21.5262 4.57839C21.8432 4.52665 22.1685 4.49976 22.5001 4.49976C25.8138 4.49976 28.5001 7.18605 28.5001 10.4998C28.5001 13.8135 25.8138 16.4998 22.5001 16.4998C22.1685 16.4998 21.8432 16.4729 21.5262 16.4211Z" fill="#151515"/>
</svg>
